<svg xmlns="http://www.w3.org/2000/svg" viewBox="0 0 91.2 91.2"><defs><style>.cls-1{fill:#fff;}.cls-2{fill:#0d152c;}.cls-3{fill:#5ac0be;}</style></defs><g id="Layer_2" data-name="Layer 2"><g id="Layer_1-2" data-name="Layer 1"><rect class="cls-1" width="91.2" height="91.2" rx="15.2"/><rect class="cls-2" x="22.02" y="46.61" width="12.87" height="24.15" rx="2.2" transform="translate(-33.16 37.31) rotate(-45)"/><path class="cls-3" d="M27.75,67.08l8.35-8.35a1.06,1.06,0,0,0,0-1.49L26,47.09a1.05,1.05,0,0,0-1.79.69l-.75,15"/><path class="cls-3" d="M23.39,62.68l7.84,7.84a1.69,1.69,0,0,0,2.39,0l40.8-40.8a1.69,1.69,0,0,0,0-2.39l-6.64-6.65a1.7,1.7,0,0,0-2.4,0l-42,42"/><path class="cls-3" d="M24.15,47.89l.06-1.36a2.06,2.06,0,0,1,1.74.56C26.83,47.86,24.15,47.89,24.15,47.89Z"/></g></g></svg>